<svg width="1000" height="300" xmlns="http://www.w3.org/2000/svg" xmlns:xlink="http://www.w3.org/1999/xlink" version="1.1" baseProfile="full" viewBox="0 0 1000 300">
<rect width="1000" height="300" x="0" y="0" id="0" fill="none"></rect>
<path d="M30 271.5L960 271.5" fill="none" stroke="#6E7079" stroke-linecap="round"></path>
<path d="M96.5 271L96.5 276" fill="none" stroke="#6E7079"></path>
<path d="M229.5 271L229.5 276" fill="none" stroke="#6E7079"></path>
<path d="M362.5 271L362.5 276" fill="none" stroke="#6E7079"></path>
<path d="M495.5 271L495.5 276" fill="none" stroke="#6E7079"></path>
<path d="M628.5 271L628.5 276" fill="none" stroke="#6E7079"></path>
<path d="M760.5 271L760.5 276" fill="none" stroke="#6E7079"></path>
<path d="M893.5 271L893.5 276" fill="none" stroke="#6E7079"></path>
<text dominant-baseline="central" text-anchor="middle" style="font-size:12px;font-family:sans-serif;" y="6" transform="translate(96.4286 279)" fill="#6E7079">Mon</text>
<text dominant-baseline="central" text-anchor="middle" style="font-size:12px;font-family:sans-serif;" y="6" transform="translate(229.2857 279)" fill="#6E7079">Tue</text>
<text dominant-baseline="central" text-anchor="middle" style="font-size:12px;font-family:sans-serif;" y="6" transform="translate(362.1429 279)" fill="#6E7079">Wed</text>
<text dominant-baseline="central" text-anchor="middle" style="font-size:12px;font-family:sans-serif;" y="6" transform="translate(495 279)" fill="#6E7079">Thu</text>
<text dominant-baseline="central" text-anchor="middle" style="font-size:12px;font-family:sans-serif;" y="6" transform="translate(627.8571 279)" fill="#6E7079">Fri</text>
<text dominant-baseline="central" text-anchor="middle" style="font-size:12px;font-family:sans-serif;" y="6" transform="translate(760.7143 279)" fill="#6E7079">Sat</text>
<text dominant-baseline="central" text-anchor="middle" style="font-size:12px;font-family:sans-serif;" y="6" transform="translate(893.5714 279)" fill="#6E7079">Sun</text>
<path d="M50.6 60l91.7 0l0 211l-91.7 0Z" fill="rgb(227,73,2)" fill-opacity="0.3"></path>
<path d="M183.5 60l91.7 0l0 211l-91.7 0Z" fill="rgb(227,73,2)" fill-opacity="0.3"></path>
<path d="M316.3 60l91.7 0l0 211l-91.7 0Z" fill="rgb(227,73,2)" fill-opacity="0.3"></path>
<path d="M449.2 60l91.7 0l0 211l-91.7 0Z" fill="rgb(227,73,2)" fill-opacity="0.3"></path>
<path d="M582 60l91.7 0l0 211l-91.7 0Z" fill="rgb(227,73,2)" fill-opacity="0.3"></path>
<path d="M714.9 60l91.7 0l0 211l-91.7 0Z" fill="rgb(227,73,2)" fill-opacity="0.3"></path>
<path d="M847.7 60l91.7 0l0 211l-91.7 0Z" fill="rgb(227,73,2)" fill-opacity="0.3"></path>
<path d="M50.6 271l91.7 0l0 -109.7l-91.7 0Z" fill="#E34902"></path>
<path d="M183.5 271l91.7 0l0 -126.6l-91.7 0Z" fill="#E34902"></path>
<path d="M316.3 271l91.7 0l0 -177.2l-91.7 0Z" fill="#E34902"></path>
<path d="M449.2 271l91.7 0l0 -84.4l-91.7 0Z" fill="#E34902"></path>
<path d="M582 271l91.7 0l0 -109.7l-91.7 0Z" fill="#E34902"></path>
<path d="M714.9 271l91.7 0l0 -109.7l-91.7 0Z" fill="#E34902"></path>
<path d="M847.7 271l91.7 0l0 -126.6l-91.7 0Z" fill="#E34902"></path>
<text dominant-baseline="central" text-anchor="middle" style="font-size:12px;font-family:sans-serif;" xml:space="preserve" y="-12" transform="translate(96.4286 216.14)" fill="#eee" stroke="#E34902" stroke-width="2" paint-order="stroke" stroke-miterlimit="2">13 rides</text>
<text dominant-baseline="central" text-anchor="middle" style="font-size:12px;font-family:sans-serif;" xml:space="preserve" transform="translate(96.4286 216.14)" fill="#eee" stroke="#E34902" stroke-width="2" paint-order="stroke" stroke-miterlimit="2">627 km</text>
<text dominant-baseline="central" text-anchor="middle" style="font-size:12px;font-family:sans-serif;" xml:space="preserve" y="12" transform="translate(96.4286 216.14)" fill="#eee" stroke="#E34902" stroke-width="2" paint-order="stroke" stroke-miterlimit="2">22h 41m</text>
<text dominant-baseline="central" text-anchor="middle" style="font-size:12px;font-family:sans-serif;" xml:space="preserve" y="-12" transform="translate(229.2857 207.7)" fill="#eee" stroke="#E34902" stroke-width="2" paint-order="stroke" stroke-miterlimit="2">15 rides</text>
<text dominant-baseline="central" text-anchor="middle" style="font-size:12px;font-family:sans-serif;" xml:space="preserve" transform="translate(229.2857 207.7)" fill="#eee" stroke="#E34902" stroke-width="2" paint-order="stroke" stroke-miterlimit="2">734 km</text>
<text dominant-baseline="central" text-anchor="middle" style="font-size:12px;font-family:sans-serif;" xml:space="preserve" y="12" transform="translate(229.2857 207.7)" fill="#eee" stroke="#E34902" stroke-width="2" paint-order="stroke" stroke-miterlimit="2">1d 3h 3m</text>
<text dominant-baseline="central" text-anchor="middle" style="font-size:12px;font-family:sans-serif;" xml:space="preserve" y="-12" transform="translate(362.1429 182.38)" fill="#eee" stroke="#E34902" stroke-width="2" paint-order="stroke" stroke-miterlimit="2">21 rides</text>
<text dominant-baseline="central" text-anchor="middle" style="font-size:12px;font-family:sans-serif;" xml:space="preserve" transform="translate(362.1429 182.38)" fill="#eee" stroke="#E34902" stroke-width="2" paint-order="stroke" stroke-miterlimit="2">991 km</text>
<text dominant-baseline="central" text-anchor="middle" style="font-size:12px;font-family:sans-serif;" xml:space="preserve" y="12" transform="translate(362.1429 182.38)" fill="#eee" stroke="#E34902" stroke-width="2" paint-order="stroke" stroke-miterlimit="2">1d 13h 26m</text>
<text dominant-baseline="central" text-anchor="middle" style="font-size:12px;font-family:sans-serif;" xml:space="preserve" y="-12" transform="translate(495 228.8)" fill="#eee" stroke="#E34902" stroke-width="2" paint-order="stroke" stroke-miterlimit="2">10 rides</text>
<text dominant-baseline="central" text-anchor="middle" style="font-size:12px;font-family:sans-serif;" xml:space="preserve" transform="translate(495 228.8)" fill="#eee" stroke="#E34902" stroke-width="2" paint-order="stroke" stroke-miterlimit="2">442 km</text>
<text dominant-baseline="central" text-anchor="middle" style="font-size:12px;font-family:sans-serif;" xml:space="preserve" y="12" transform="translate(495 228.8)" fill="#eee" stroke="#E34902" stroke-width="2" paint-order="stroke" stroke-miterlimit="2">17h 52m</text>
<text dominant-baseline="central" text-anchor="middle" style="font-size:12px;font-family:sans-serif;" xml:space="preserve" y="-12" transform="translate(627.8571 216.14)" fill="#eee" stroke="#E34902" stroke-width="2" paint-order="stroke" stroke-miterlimit="2">13 rides</text>
<text dominant-baseline="central" text-anchor="middle" style="font-size:12px;font-family:sans-serif;" xml:space="preserve" transform="translate(627.8571 216.14)" fill="#eee" stroke="#E34902" stroke-width="2" paint-order="stroke" stroke-miterlimit="2">597 km</text>
<text dominant-baseline="central" text-anchor="middle" style="font-size:12px;font-family:sans-serif;" xml:space="preserve" y="12" transform="translate(627.8571 216.14)" fill="#eee" stroke="#E34902" stroke-width="2" paint-order="stroke" stroke-miterlimit="2">22h 42m</text>
<text dominant-baseline="central" text-anchor="middle" style="font-size:12px;font-family:sans-serif;" xml:space="preserve" y="-12" transform="translate(760.7143 216.14)" fill="#eee" stroke="#E34902" stroke-width="2" paint-order="stroke" stroke-miterlimit="2">13 rides</text>
<text dominant-baseline="central" text-anchor="middle" style="font-size:12px;font-family:sans-serif;" xml:space="preserve" transform="translate(760.7143 216.14)" fill="#eee" stroke="#E34902" stroke-width="2" paint-order="stroke" stroke-miterlimit="2">589 km</text>
<text dominant-baseline="central" text-anchor="middle" style="font-size:12px;font-family:sans-serif;" xml:space="preserve" y="12" transform="translate(760.7143 216.14)" fill="#eee" stroke="#E34902" stroke-width="2" paint-order="stroke" stroke-miterlimit="2">23h 13m</text>
<text dominant-baseline="central" text-anchor="middle" style="font-size:12px;font-family:sans-serif;" xml:space="preserve" y="-12" transform="translate(893.5714 207.7)" fill="#eee" stroke="#E34902" stroke-width="2" paint-order="stroke" stroke-miterlimit="2">15 rides</text>
<text dominant-baseline="central" text-anchor="middle" style="font-size:12px;font-family:sans-serif;" xml:space="preserve" transform="translate(893.5714 207.7)" fill="#eee" stroke="#E34902" stroke-width="2" paint-order="stroke" stroke-miterlimit="2">711 km</text>
<text dominant-baseline="central" text-anchor="middle" style="font-size:12px;font-family:sans-serif;" xml:space="preserve" y="12" transform="translate(893.5714 207.7)" fill="#eee" stroke="#E34902" stroke-width="2" paint-order="stroke" stroke-miterlimit="2">1d 2h 36m</text>
</svg>
