<svg width="1000" height="300" xmlns="http://www.w3.org/2000/svg" xmlns:xlink="http://www.w3.org/1999/xlink" version="1.1" baseProfile="full" viewBox="0 0 1000 300">
<rect width="1000" height="300" x="0" y="0" id="0" fill="#ffffff"></rect>
<path d="M77.5 60L77.5 271" fill="none" stroke="#E0E6F1"></path>
<path d="M107.5 60L107.5 271" fill="none" stroke="#E0E6F1"></path>
<path d="M287.5 60L287.5 271" fill="none" stroke="#E0E6F1"></path>
<path d="M473.5 60L473.5 271" fill="none" stroke="#E0E6F1"></path>
<path d="M654.5 60L654.5 271" fill="none" stroke="#E0E6F1"></path>
<path d="M840.5 60L840.5 271" fill="none" stroke="#E0E6F1"></path>
<path d="M960.5 60L960.5 271" fill="none" stroke="#E0E6F1"></path>
<path d="M77.5 271.5L960 271.5" fill="none" stroke="#6E7079" stroke-linecap="round"></path>
<text dominant-baseline="central" text-anchor="end" style="font-size:12px;font-family:sans-serif;" xml:space="preserve" transform="translate(69.48 271)" fill="#6E7079">0 km</text>
<text dominant-baseline="central" text-anchor="end" style="font-size:12px;font-family:sans-serif;" xml:space="preserve" transform="translate(69.48 235.8333)" fill="#6E7079">50 km</text>
<text dominant-baseline="central" text-anchor="end" style="font-size:12px;font-family:sans-serif;" xml:space="preserve" transform="translate(69.48 200.6667)" fill="#6E7079">100 km</text>
<text dominant-baseline="central" text-anchor="end" style="font-size:12px;font-family:sans-serif;" xml:space="preserve" transform="translate(69.48 165.5)" fill="#6E7079">150 km</text>
<text dominant-baseline="central" text-anchor="end" style="font-size:12px;font-family:sans-serif;" xml:space="preserve" transform="translate(69.48 130.3333)" fill="#6E7079">200 km</text>
<text dominant-baseline="central" text-anchor="end" style="font-size:12px;font-family:sans-serif;" xml:space="preserve" transform="translate(69.48 95.1667)" fill="#6E7079">250 km</text>
<text dominant-baseline="central" text-anchor="end" style="font-size:12px;font-family:sans-serif;" xml:space="preserve" transform="translate(69.48 60)" fill="#6E7079">300 km</text>
<text dominant-baseline="central" text-anchor="middle" style="font: normal normal 12px sans-serif" y="6" transform="translate(107.4977 279)" fill="#6E7079">Apr</text>
<text dominant-baseline="central" text-anchor="middle" style="font: normal normal 12px sans-serif" y="6" transform="translate(287.6038 279)" fill="#6E7079">May</text>
<text dominant-baseline="central" text-anchor="middle" style="font: normal normal 12px sans-serif" y="6" transform="translate(473.7135 279)" fill="#6E7079">Jun</text>
<text dominant-baseline="central" text-anchor="middle" style="font: normal normal 12px sans-serif" y="6" transform="translate(653.8196 279)" fill="#6E7079">Jul</text>
<text dominant-baseline="central" text-anchor="middle" style="font: normal normal 12px sans-serif" y="6" transform="translate(839.9293 279)" fill="#6E7079">Aug</text>
<g clip-path="url(#zr0-c0)">
<path d="M77.5 261.9L119.5 179.6L161.5 176.1L203.6 193.6L245.6 177.5L287.6 162.7L329.6 126.8L371.7 169L413.7 171.1L455.7 164.8L497.7 97.3L539.8 122.6L581.8 169L623.8 114.9L665.8 150L707.9 136L749.9 74.1L791.9 86L833.9 143L876 124.7L918 142.3L960 135.3L960 271L918 271L876 271L833.9 271L791.9 271L749.9 271L707.9 271L665.8 271L623.8 271L581.8 271L539.8 271L497.7 271L455.7 271L413.7 271L371.7 271L329.6 271L287.6 271L245.6 271L203.6 271L161.5 271L119.5 271L77.5 271Z" fill="rgb(227,73,2)" fill-opacity="0.09"></path>
<path d="M77.5 261.9L119.5 179.6L161.5 176.1L203.6 193.6L245.6 177.5L287.6 162.7L329.6 126.8L371.7 169L413.7 171.1L455.7 164.8L497.7 97.3L539.8 122.6L581.8 169L623.8 114.9L665.8 150L707.9 136L749.9 74.1L791.9 86L833.9 143L876 124.7L918 142.3L960 135.3" fill="none" stroke="#E34902" stroke-linejoin="bevel"></path>
</g>
<path d="M1 0A1 1 0 1 1 1 -0.1A1 1 0 0 1 1 0" transform="matrix(3,0,0,3,77.48,261.8567)" fill="#fff" stroke="#E34902" stroke-width="0.6666666666666666"></path>
<path d="M1 0A1 1 0 1 1 1 -0.1A1 1 0 0 1 1 0" transform="matrix(3,0,0,3,119.5048,179.5667)" fill="#fff" stroke="#E34902" stroke-width="0.6666666666666666"></path>
<path d="M1 0A1 1 0 1 1 1 -0.1A1 1 0 0 1 1 0" transform="matrix(3,0,0,3,161.5295,176.05)" fill="#fff" stroke="#E34902" stroke-width="0.6666666666666666"></path>
<path d="M1 0A1 1 0 1 1 1 -0.1A1 1 0 0 1 1 0" transform="matrix(3,0,0,3,203.5543,193.6333)" fill="#fff" stroke="#E34902" stroke-width="0.6666666666666666"></path>
<path d="M1 0A1 1 0 1 1 1 -0.1A1 1 0 0 1 1 0" transform="matrix(3,0,0,3,245.579,177.4567)" fill="#fff" stroke="#E34902" stroke-width="0.6666666666666666"></path>
<path d="M1 0A1 1 0 1 1 1 -0.1A1 1 0 0 1 1 0" transform="matrix(3,0,0,3,287.6038,162.6867)" fill="#fff" stroke="#E34902" stroke-width="0.6666666666666666"></path>
<path d="M1 0A1 1 0 1 1 1 -0.1A1 1 0 0 1 1 0" transform="matrix(3,0,0,3,329.6286,126.8167)" fill="#fff" stroke="#E34902" stroke-width="0.6666666666666666"></path>
<path d="M1 0A1 1 0 1 1 1 -0.1A1 1 0 0 1 1 0" transform="matrix(3,0,0,3,371.6533,169.0167)" fill="#fff" stroke="#E34902" stroke-width="0.6666666666666666"></path>
<path d="M1 0A1 1 0 1 1 1 -0.1A1 1 0 0 1 1 0" transform="matrix(3,0,0,3,413.6781,171.1267)" fill="#fff" stroke="#E34902" stroke-width="0.6666666666666666"></path>
<path d="M1 0A1 1 0 1 1 1 -0.1A1 1 0 0 1 1 0" transform="matrix(3,0,0,3,455.7029,164.7967)" fill="#fff" stroke="#E34902" stroke-width="0.6666666666666666"></path>
<path d="M1 0A1 1 0 1 1 1 -0.1A1 1 0 0 1 1 0" transform="matrix(3,0,0,3,497.7276,97.2767)" fill="#fff" stroke="#E34902" stroke-width="0.6666666666666666"></path>
<path d="M1 0A1 1 0 1 1 1 -0.1A1 1 0 0 1 1 0" transform="matrix(3,0,0,3,539.7524,122.5967)" fill="#fff" stroke="#E34902" stroke-width="0.6666666666666666"></path>
<path d="M1 0A1 1 0 1 1 1 -0.1A1 1 0 0 1 1 0" transform="matrix(3,0,0,3,581.7772,169.0167)" fill="#fff" stroke="#E34902" stroke-width="0.6666666666666666"></path>
<path d="M1 0A1 1 0 1 1 1 -0.1A1 1 0 0 1 1 0" transform="matrix(3,0,0,3,623.8019,114.86)" fill="#fff" stroke="#E34902" stroke-width="0.6666666666666666"></path>
<path d="M1 0A1 1 0 1 1 1 -0.1A1 1 0 0 1 1 0" transform="matrix(3,0,0,3,665.8267,150.0267)" fill="#fff" stroke="#E34902" stroke-width="0.6666666666666666"></path>
<path d="M1 0A1 1 0 1 1 1 -0.1A1 1 0 0 1 1 0" transform="matrix(3,0,0,3,707.8514,135.96)" fill="#fff" stroke="#E34902" stroke-width="0.6666666666666666"></path>
<path d="M1 0A1 1 0 1 1 1 -0.1A1 1 0 0 1 1 0" transform="matrix(3,0,0,3,749.8762,74.0667)" fill="#fff" stroke="#E34902" stroke-width="0.6666666666666666"></path>
<path d="M1 0A1 1 0 1 1 1 -0.1A1 1 0 0 1 1 0" transform="matrix(3,0,0,3,791.9009,86.0233)" fill="#fff" stroke="#E34902" stroke-width="0.6666666666666666"></path>
<path d="M1 0A1 1 0 1 1 1 -0.1A1 1 0 0 1 1 0" transform="matrix(3,0,0,3,833.9257,142.9933)" fill="#fff" stroke="#E34902" stroke-width="0.6666666666666666"></path>
<path d="M1 0A1 1 0 1 1 1 -0.1A1 1 0 0 1 1 0" transform="matrix(3,0,0,3,875.9505,124.7067)" fill="#fff" stroke="#E34902" stroke-width="0.6666666666666666"></path>
<path d="M1 0A1 1 0 1 1 1 -0.1A1 1 0 0 1 1 0" transform="matrix(3,0,0,3,917.9752,142.29)" fill="#fff" stroke="#E34902" stroke-width="0.6666666666666666"></path>
<path d="M1 0A1 1 0 1 1 1 -0.1A1 1 0 0 1 1 0" transform="matrix(3,0,0,3,960,135.2567)" fill="#fff" stroke="#E34902" stroke-width="0.6666666666666666"></path>
<text dominant-baseline="central" text-anchor="middle" style="font-size:12px;font-family:sans-serif;" xml:space="preserve" y="-6" transform="matrix(0.707,0.707,-0.707,0.707,77.48,252.8567)" fill="#333" stroke="rgb(255,255,255)" stroke-width="2" paint-order="stroke" stroke-miterlimit="2">13 km</text>
<text dominant-baseline="central" text-anchor="middle" style="font-size:12px;font-family:sans-serif;" xml:space="preserve" y="-6" transform="matrix(0.707,0.707,-0.707,0.707,119.5048,170.5667)" fill="#333" stroke="rgb(255,255,255)" stroke-width="2" paint-order="stroke" stroke-miterlimit="2">130 km</text>
<text dominant-baseline="central" text-anchor="middle" style="font-size:12px;font-family:sans-serif;" xml:space="preserve" y="-6" transform="matrix(0.707,0.707,-0.707,0.707,161.5295,167.05)" fill="#333" stroke="rgb(255,255,255)" stroke-width="2" paint-order="stroke" stroke-miterlimit="2">135 km</text>
<text dominant-baseline="central" text-anchor="middle" style="font-size:12px;font-family:sans-serif;" xml:space="preserve" y="-6" transform="matrix(0.707,0.707,-0.707,0.707,203.5543,184.6333)" fill="#333" stroke="rgb(255,255,255)" stroke-width="2" paint-order="stroke" stroke-miterlimit="2">110 km</text>
<text dominant-baseline="central" text-anchor="middle" style="font-size:12px;font-family:sans-serif;" xml:space="preserve" y="-6" transform="matrix(0.707,0.707,-0.707,0.707,245.579,168.4567)" fill="#333" stroke="rgb(255,255,255)" stroke-width="2" paint-order="stroke" stroke-miterlimit="2">133 km</text>
<text dominant-baseline="central" text-anchor="middle" style="font-size:12px;font-family:sans-serif;" xml:space="preserve" y="-6" transform="matrix(0.707,0.707,-0.707,0.707,287.6038,153.6867)" fill="#333" stroke="rgb(255,255,255)" stroke-width="2" paint-order="stroke" stroke-miterlimit="2">154 km</text>
<text dominant-baseline="central" text-anchor="middle" style="font-size:12px;font-family:sans-serif;" xml:space="preserve" y="-6" transform="matrix(0.707,0.707,-0.707,0.707,329.6286,117.8167)" fill="#333" stroke="rgb(255,255,255)" stroke-width="2" paint-order="stroke" stroke-miterlimit="2">205 km</text>
<text dominant-baseline="central" text-anchor="middle" style="font-size:12px;font-family:sans-serif;" xml:space="preserve" y="-6" transform="matrix(0.707,0.707,-0.707,0.707,371.6533,160.0167)" fill="#333" stroke="rgb(255,255,255)" stroke-width="2" paint-order="stroke" stroke-miterlimit="2">145 km</text>
<text dominant-baseline="central" text-anchor="middle" style="font-size:12px;font-family:sans-serif;" xml:space="preserve" y="-6" transform="matrix(0.707,0.707,-0.707,0.707,413.6781,162.1267)" fill="#333" stroke="rgb(255,255,255)" stroke-width="2" paint-order="stroke" stroke-miterlimit="2">142 km</text>
<text dominant-baseline="central" text-anchor="middle" style="font-size:12px;font-family:sans-serif;" xml:space="preserve" y="-6" transform="matrix(0.707,0.707,-0.707,0.707,455.7029,155.7967)" fill="#333" stroke="rgb(255,255,255)" stroke-width="2" paint-order="stroke" stroke-miterlimit="2">151 km</text>
<text dominant-baseline="central" text-anchor="middle" style="font-size:12px;font-family:sans-serif;" xml:space="preserve" y="-6" transform="matrix(0.707,0.707,-0.707,0.707,497.7276,88.2767)" fill="#333" stroke="rgb(255,255,255)" stroke-width="2" paint-order="stroke" stroke-miterlimit="2">247 km</text>
<text dominant-baseline="central" text-anchor="middle" style="font-size:12px;font-family:sans-serif;" xml:space="preserve" y="-6" transform="matrix(0.707,0.707,-0.707,0.707,539.7524,113.5967)" fill="#333" stroke="rgb(255,255,255)" stroke-width="2" paint-order="stroke" stroke-miterlimit="2">211 km</text>
<text dominant-baseline="central" text-anchor="middle" style="font-size:12px;font-family:sans-serif;" xml:space="preserve" y="-6" transform="matrix(0.707,0.707,-0.707,0.707,581.7772,160.0167)" fill="#333" stroke="rgb(255,255,255)" stroke-width="2" paint-order="stroke" stroke-miterlimit="2">145 km</text>
<text dominant-baseline="central" text-anchor="middle" style="font-size:12px;font-family:sans-serif;" xml:space="preserve" y="-6" transform="matrix(0.707,0.707,-0.707,0.707,623.8019,105.86)" fill="#333" stroke="rgb(255,255,255)" stroke-width="2" paint-order="stroke" stroke-miterlimit="2">222 km</text>
<text dominant-baseline="central" text-anchor="middle" style="font-size:12px;font-family:sans-serif;" xml:space="preserve" y="-6" transform="matrix(0.707,0.707,-0.707,0.707,665.8267,141.0267)" fill="#333" stroke="rgb(255,255,255)" stroke-width="2" paint-order="stroke" stroke-miterlimit="2">172 km</text>
<text dominant-baseline="central" text-anchor="middle" style="font-size:12px;font-family:sans-serif;" xml:space="preserve" y="-6" transform="matrix(0.707,0.707,-0.707,0.707,707.8514,126.96)" fill="#333" stroke="rgb(255,255,255)" stroke-width="2" paint-order="stroke" stroke-miterlimit="2">192 km</text>
<text dominant-baseline="central" text-anchor="middle" style="font-size:12px;font-family:sans-serif;" xml:space="preserve" y="-6" transform="matrix(0.707,0.707,-0.707,0.707,749.8762,65.0667)" fill="#333" stroke="rgb(255,255,255)" stroke-width="2" paint-order="stroke" stroke-miterlimit="2">280 km</text>
<text dominant-baseline="central" text-anchor="middle" style="font-size:12px;font-family:sans-serif;" xml:space="preserve" y="-6" transform="matrix(0.707,0.707,-0.707,0.707,791.9009,77.0233)" fill="#333" stroke="rgb(255,255,255)" stroke-width="2" paint-order="stroke" stroke-miterlimit="2">263 km</text>
<text dominant-baseline="central" text-anchor="middle" style="font-size:12px;font-family:sans-serif;" xml:space="preserve" y="-6" transform="matrix(0.707,0.707,-0.707,0.707,833.9257,133.9933)" fill="#333" stroke="rgb(255,255,255)" stroke-width="2" paint-order="stroke" stroke-miterlimit="2">182 km</text>
<text dominant-baseline="central" text-anchor="middle" style="font-size:12px;font-family:sans-serif;" xml:space="preserve" y="-6" transform="matrix(0.707,0.707,-0.707,0.707,875.9505,115.7067)" fill="#333" stroke="rgb(255,255,255)" stroke-width="2" paint-order="stroke" stroke-miterlimit="2">208 km</text>
<text dominant-baseline="central" text-anchor="middle" style="font-size:12px;font-family:sans-serif;" xml:space="preserve" y="-6" transform="matrix(0.707,0.707,-0.707,0.707,917.9752,133.29)" fill="#333" stroke="rgb(255,255,255)" stroke-width="2" paint-order="stroke" stroke-miterlimit="2">183 km</text>
<text dominant-baseline="central" text-anchor="middle" style="font-size:12px;font-family:sans-serif;" xml:space="preserve" y="-6" transform="matrix(0.707,0.707,-0.707,0.707,960,126.2567)" fill="#333" stroke="rgb(255,255,255)" stroke-width="2" paint-order="stroke" stroke-miterlimit="2">193 km</text>
<defs >
<clipPath id="zr0-c0">
<path d="M76 59.5l884 0l0 212l-884 0Z" fill="#000"></path>
</clipPath>
</defs>
</svg>
