<svg width="1000" height="300" xmlns="http://www.w3.org/2000/svg" xmlns:xlink="http://www.w3.org/1999/xlink" version="1.1" baseProfile="full" viewBox="0 0 1000 300">
<rect width="1000" height="300" x="0" y="0" id="0" fill="none"></rect>
<path d="M365 225A135 135 0 1 1 635 225L585 225A85 85 0 0 0 415 225Z" fill="#E6EBF8"></path>
<text dominant-baseline="central" text-anchor="middle" style="font-size:20px;font-family:sans-serif;font-weight:bold;" x="335" y="225.00000000000003" transform="matrix(0,-1,1,0,110,560)" fill="#E34902">0</text>
<text dominant-baseline="central" text-anchor="middle" style="font-size:20px;font-family:sans-serif;font-weight:bold;" x="665" y="224.99999999999997" transform="matrix(0,1,-1,0,890,-440)" fill="#E34902">238</text>
<text dominant-baseline="central" text-anchor="middle" style="font-size:20px;font-family:sans-serif;font-weight:bold;" xml:space="preserve" x="500" y="211.5" fill="#464646">Days of cycling</text>
<path d="M440 175.3l120 0l0 40l-120 0Z" fill="rgb(0,0,0)" fill-opacity="0"></path>
<text dominant-baseline="central" text-anchor="middle" style="font-size:30px;font-family:sans-serif;font-weight:bold;" x="500" y="195.3" fill="#464646">150</text>
<path d="M0 -97.2L10 -81L-10 -81L0 -97.2Z" transform="matrix(0.917,0.398,-0.398,0.917,500,225)" fill="#E6EBF8"></path>
<path d="M365 225A135 135 0 0 1 553.7 101.1L533.8 147A85 85 0 0 0 415 225Z" fill="#E34902"></path>
</svg>
