<svg width="600" height="500" xmlns="http://www.w3.org/2000/svg" xmlns:xlink="http://www.w3.org/1999/xlink" version="1.1" baseProfile="full" viewBox="0 0 600 500">
<rect width="600" height="500" x="0" y="0" id="0" fill="#ffffff"></rect>
<path d="M75 340A225 225 0 1 1 525 340L475 340A175 175 0 0 0 125 340Z" fill="#E6EBF8"></path>
<text dominant-baseline="central" text-anchor="middle" style="font-size:20px;font-family:sans-serif;font-weight:bold;" x="45" y="340.00000000000006" transform="matrix(0,-1,1,0,-295,385)" fill="#E34902">0</text>
<text dominant-baseline="central" text-anchor="middle" style="font-size:20px;font-family:sans-serif;font-weight:bold;" x="555" y="339.99999999999994" transform="matrix(0,1,-1,0,895,-215)" fill="#E34902">121</text>
<text dominant-baseline="central" text-anchor="middle" style="font-size:20px;font-family:sans-serif;font-weight:bold;" xml:space="preserve" x="300" y="317.5" fill="#464646">Days of cycling (69%)</text>
<path d="M240 270.5l120 0l0 40l-120 0Z" fill="rgb(0,0,0)" fill-opacity="0"></path>
<text dominant-baseline="central" text-anchor="middle" style="font-size:30px;font-family:sans-serif;font-weight:bold;" x="300" y="290.5" fill="#464646">83</text>
<path d="M0 -162L10 -135L-10 -135L0 -162Z" transform="matrix(0.834,0.552,-0.552,0.834,300,340)" fill="#E6EBF8"></path>
<path d="M75 340A225 225 0 0 1 424.1 152.3L396.5 194A175 175 0 0 0 125 340Z" fill="#E34902"></path>
</svg>
